<?xml version="1.0" encoding="UTF-8"?>
<svg width="617.97" height="500" version="1.1" viewBox="0 0 163.51 132.29" xmlns="http://www.w3.org/2000/svg">
 <defs>
  <clipPath id="clipPath877">
   <path d="m114.16 706.4h81.89v66.256h-81.89z"/>
  </clipPath>
  <linearGradient id="linearGradient867" x2="1" gradientTransform="matrix(66.256 0 0 -66.256 122.33 714.77)" gradientUnits="userSpaceOnUse">
   <stop stop-color="#a8e3f7" offset="0"/>
   <stop stop-color="#a8e3f7" offset=".060084"/>
   <stop stop-color="#f5d924" offset=".95123"/>
   <stop stop-color="#f5d924" offset="1"/>
  </linearGradient>
  <linearGradient id="linearGradient843" x2="1" gradientTransform="matrix(66.256 0 0 -66.256 122.33 763.45)" gradientUnits="userSpaceOnUse">
   <stop stop-color="#4974c2" offset="0"/>
   <stop stop-color="#ed195d" offset=".95123"/>
   <stop stop-color="#ed195d" offset="1"/>
  </linearGradient>
 </defs>
 <g transform="translate(-95.925 4.2774)">
  <g transform="matrix(1.9967 0 0 -1.9967 -132.02 1538.5)">
   <path d="m122.33 772.66v-18.428h6.873v11.556h52.51v-11.556h6.874v18.428z" fill="url(#linearGradient843)"/>
  </g>
  <g transform="matrix(1.9967 0 0 -1.9967 -132.02 1538.5)">
   <path d="m181.72 723.14v-9.862h-52.51v9.862h-6.873v-16.735h66.257v16.735z" fill="url(#linearGradient867)"/>
  </g>
  <g transform="matrix(1.9967 0 0 -1.9967 -132.02 1538.5)">
   <g clip-path="url(#clipPath877)">
    <g transform="translate(122.8 741.74)">
     <path d="m0 0c-0.546 0.182-1.5 0.454-1.864 0.568-0.363 0.113-1.09 0.272-1.09 0.727 0 0.476 0.454 0.635 1.272 0.635s2.546-0.454 3.727-1.499l1.954 3.635c-1.363 1.135-3.499 1.885-5.59 1.885-2.09 0-3.659-0.568-4.613-1.363-0.931-0.772-1.818-2.09-1.818-3.793 0-2.612 1.409-3.634 3.591-4.497 0.454-0.159 1.704-0.568 2.272-0.727 0.568-0.182 1.136-0.364 1.136-0.818s-0.477-0.659-1.158-0.659c-0.682 0-2.728 0.477-4.182 1.704l-2.272-3.861c2.136-1.59 4.226-2.09 6.044-2.09s3.386 0.386 4.636 1.34c1.25 0.977 2.045 2.453 2.045 4.089 0 2.748-1.727 3.929-4.09 4.724" fill="#28306b"/>
    </g>
    <g transform="translate(137.96 747.53)">
     <path d="m0 0h-6.817v-15.672h5.135v4.883h1.682c3.522 0 6.136 1.59 6.136 5.383 0 3.816-2.591 5.406-6.136 5.406m-0.863-6.927h-0.841v3.066h0.841c1.045 0 1.818-0.364 1.818-1.545 0-1.204-0.75-1.521-1.818-1.521" fill="#28306b"/>
    </g>
    <g transform="translate(155.12 747.78)">
     <path d="m0 0c-4.886 0-8.522-2.998-8.522-8.109 0-5.11 3.636-8.085 8.522-8.085s8.522 2.975 8.522 8.085c0 5.111-3.636 8.109-8.522 8.109m0-11.652c-2.045 0-3.363 1.499-3.363 3.657s1.318 3.657 3.363 3.657 3.34-1.499 3.34-3.657-1.295-3.657-3.34-3.657" fill="#28306b"/>
    </g>
    <g transform="translate(172.89 747.53)">
     <path d="m0 0h-5.113v-15.672h10.453v4.202h-5.34z" fill="#28306b"/>
    </g>
    <g transform="translate(190.87 738.33)">
     <path d="m0 0c0-1.34-0.523-2.271-1.977-2.271-1.455 0-2 0.931-2 2.271v9.199h-5.158v-8.972c0-2.498 0.568-3.975 1.704-5.11 1.136-1.136 2.954-1.84 5.454-1.84s4.317 0.704 5.454 1.84c1.136 1.135 1.704 2.612 1.704 5.11v8.972h-5.181z" fill="#28306b"/>
    </g>
   </g>
  </g>
 </g>
</svg>
