<?xml version="1.0" encoding="UTF-8" standalone="no"?>
<!-- Creator: CorelDRAW -->

<svg
   xml:space="preserve"
   width="401.93073"
   height="90"
   version="1.1"
   style="clip-rule:evenodd;fill-rule:evenodd;image-rendering:optimizeQuality;shape-rendering:geometricPrecision;text-rendering:geometricPrecision"
   viewBox="0 0 506.70267 113.48"
   id="svg25"
   sodipodi:docname="logo-stacilo-notagline.svg"
   inkscape:version="1.1.2 (b8e25be833, 2022-02-05)"
   xmlns:inkscape="http://www.inkscape.org/namespaces/inkscape"
   xmlns:sodipodi="http://sodipodi.sourceforge.net/DTD/sodipodi-0.dtd"
   xmlns="http://www.w3.org/2000/svg"
   xmlns:svg="http://www.w3.org/2000/svg"><sodipodi:namedview
   id="namedview27"
   pagecolor="#505050"
   bordercolor="#eeeeee"
   borderopacity="1"
   inkscape:pageshadow="0"
   inkscape:pageopacity="0"
   inkscape:pagecheckerboard="0"
   showgrid="false"
   fit-margin-top="0"
   fit-margin-left="0"
   fit-margin-right="0"
   fit-margin-bottom="0"
   inkscape:zoom="1.00965"
   inkscape:cx="-109.93909"
   inkscape:cy="58.436093"
   inkscape:window-width="1920"
   inkscape:window-height="1017"
   inkscape:window-x="-8"
   inkscape:window-y="-8"
   inkscape:window-maximized="1"
   inkscape:current-layer="Layer_x0020_1" />
 <defs
   id="defs4">
  <style
   type="text/css"
   id="style2">
   <![CDATA[
    .fil2 {fill:black;fill-rule:nonzero}
    .fil1 {fill:#7D0004;fill-rule:nonzero}
    .fil0 {fill:#CC0000;fill-rule:nonzero}
   ]]>
  </style>
 </defs>
 <g
   id="Layer_x0020_1"
   inkscape:label="Layer 1"
   inkscape:groupmode="layer"
   transform="translate(-0.04366667)">
  <metadata
   id="CorelCorpID_0Corel-Layer" />
  <g
   id="_1610667062976">
   <polygon
   class="fil0"
   points="23.78,27.99 0,27.99 0,113.45 23.78,113.45 "
   id="polygon7" />
   <polygon
   class="fil1"
   points="35.62,113.45 35.62,27.99 23.73,27.99 23.73,113.45 "
   id="polygon9" />
   <path
   class="fil2"
   d="M 116.48,39.6 106,51.94 c -5.39,-4.31 -11.1,-6.46 -17.14,-6.46 -2.84,0 -5,0.49 -6.47,1.5 -1.47,1.01 -2.18,2.42 -2.18,4.28 0,1.37 0.39,2.51 1.2,3.39 0.82,0.89 2.16,1.7 4.02,2.49 1.89,0.75 4.96,1.82 9.17,3.19 8.46,2.71 14.53,6.08 18.25,10.16 3.73,4.08 5.59,9.63 5.59,16.68 0,5.16 -1.37,9.73 -4.08,13.68 -2.71,3.95 -6.63,7.02 -11.69,9.27 -5.06,2.22 -11.07,3.33 -17.96,3.33 -7.08,0 -13.29,-1.11 -18.67,-3.33 -5.39,-2.25 -9.9,-5.15 -13.59,-8.78 L 64.08,88.58 c 6.07,5.19 12.63,7.8 19.72,7.8 3.29,0 5.78,-0.65 7.44,-1.99 1.7,-1.34 2.55,-3.1 2.55,-5.26 0,-1.6 -0.36,-2.94 -1.11,-4.01 -0.72,-1.08 -1.99,-2.09 -3.86,-3.01 -1.82,-0.91 -4.5,-1.92 -8.03,-3 -9.3,-2.91 -15.8,-6.43 -19.49,-10.52 -3.69,-4.11 -5.52,-9.23 -5.52,-15.37 0,-5 1.34,-9.34 4.02,-13.03 2.71,-3.69 6.4,-6.53 11.13,-8.52 4.74,-1.99 10.06,-3 15.97,-3 12.21,0 22.07,3.65 29.58,10.93 z"
   id="path11" />
   <polygon
   class="fil2"
   points="162.8,111.14 139.06,111.14 139.06,48.71 119.6,48.71 119.6,30.98 183.4,30.98 180.98,48.71 162.8,48.71 "
   id="polygon13" />
   <path
   class="fil2"
   d="m 219.78,95.6 h -19 l -3,15.54 H 173.03 L 196.4,30.98 h 28.34 l 23.25,80.16 h -25.11 z m -3.33,-16.59 -6.24,-31.44 -6.1,31.44 z"
   id="path15" />
   <path
   class="fil2"
   d="m 308,38.1 -11.29,13.26 c -4.15,-3.76 -8.66,-5.65 -13.59,-5.65 -4.6,0 -8.19,2.12 -10.7,6.33 -2.52,4.21 -3.79,10.48 -3.79,18.78 0,8.29 1.3,14.49 3.88,18.61 2.62,4.11 6.37,6.17 11.3,6.17 2.55,0 4.93,-0.56 7.15,-1.67 2.22,-1.14 4.77,-2.81 7.61,-5.03 l 10.35,13.36 c -3.23,3.23 -7.12,5.91 -11.69,8.03 -4.57,2.12 -9.5,3.16 -14.79,3.16 -7.84,0 -14.63,-1.63 -20.41,-4.89 -5.74,-3.27 -10.18,-8.1 -13.35,-14.47 -3.13,-6.36 -4.7,-14.13 -4.7,-23.27 0,-8.75 1.6,-16.3 4.77,-22.63 3.16,-6.33 7.64,-11.17 13.35,-14.5 5.71,-3.36 12.28,-5.02 19.65,-5.02 10.22,0 18.97,3.13 26.25,9.43 z M 306.4,8.85 289.69,25.11 H 276.11 L 259.39,8.85 267.13,0 282.9,9.89 298.67,0 Z m 31.18,102.29 h -23.7 V 30.98 h 23.7 z m 33.63,-18.19 h 30.3 l -2.42,18.19 H 347.51 V 30.98 h 23.7 z"
   id="path17" />
   <path
   class="fil2"
   d="m 478.71,70.95 c 0,8.65 -1.46,16.19 -4.37,22.56 -2.91,6.36 -7.18,11.29 -12.8,14.75 -5.61,3.46 -12.37,5.19 -20.27,5.19 -11.99,0 -21.19,-3.75 -27.69,-11.23 -6.5,-7.47 -9.73,-17.92 -9.73,-31.27 0,-8.69 1.47,-16.2 4.38,-22.53 2.9,-6.34 7.18,-11.2 12.76,-14.63 5.62,-3.43 12.38,-5.12 20.28,-5.12 11.98,0 21.19,3.72 27.68,11.13 6.5,7.41 9.76,17.79 9.76,31.15 z m -50.21,0 c 0,9.2 0.98,15.8 2.97,19.75 1.99,3.95 5.26,5.91 9.8,5.91 4.6,0 7.9,-1.96 9.86,-5.85 1.95,-3.91 2.93,-10.51 2.93,-19.81 0,-9.24 -1.01,-15.77 -3,-19.66 -1.99,-3.88 -5.26,-5.81 -9.79,-5.81 -4.54,0 -7.81,1.93 -9.8,5.81 -1.99,3.89 -2.97,10.42 -2.97,19.66 z m 75.32,9.07 h -17.99 l -3,-49.04 h 23.96 z m 2.87,21.55 c 0,3.23 -1.14,6.01 -3.46,8.36 -2.31,2.35 -5.12,3.52 -8.42,3.52 -3.3,0 -6.07,-1.17 -8.39,-3.52 -2.32,-2.35 -3.46,-5.13 -3.46,-8.36 0,-3.23 1.14,-6.01 3.46,-8.33 2.32,-2.35 5.09,-3.52 8.39,-3.52 3.3,0 6.11,1.17 8.42,3.52 2.32,2.32 3.46,5.1 3.46,8.33 z"
   id="path19" />
   <path
   class="fil0"
   d="m 494.77,89.69 c -3.33,0 -6.15,1.18 -8.47,3.52 -2.32,2.35 -3.48,5.14 -3.48,8.38 0,3.23 1.16,6.02 3.48,8.37 2.32,2.35 5.14,3.52 8.47,3.52 3.32,0 6.14,-1.17 8.46,-3.52 2.32,-2.35 3.48,-5.14 3.48,-8.37 0,-3.24 -1.16,-6.03 -3.48,-8.38 -2.32,-2.34 -5.14,-3.52 -8.46,-3.52 z"
   id="path21" />
  </g>
 </g>
</svg>
